<svg xmlns="http://www.w3.org/2000/svg" viewBox="0 0 120 120" fill="none" role="img" aria-label="Portrait">
  <defs>
    <linearGradient id="bg" x1="18" y1="8" x2="102" y2="112" gradientUnits="userSpaceOnUse">
      <stop stop-color="#1c1916"/>
      <stop offset="1" stop-color="#0c0b0f"/>
    </linearGradient>
    <linearGradient id="skin" x1="38" y1="34" x2="82" y2="92" gradientUnits="userSpaceOnUse">
      <stop stop-color="#e0c4a8"/>
      <stop offset="0.55" stop-color="#c9a080"/>
      <stop offset="1" stop-color="#a67d5c"/>
    </linearGradient>
    <linearGradient id="hair" x1="28" y1="16" x2="92" y2="52" gradientUnits="userSpaceOnUse">
      <stop stop-color="#4a3828"/>
      <stop offset="1" stop-color="#2a2018"/>
    </linearGradient>
    <linearGradient id="shirt" x1="30" y1="88" x2="90" y2="118" gradientUnits="userSpaceOnUse">
      <stop stop-color="#2a2830"/>
      <stop offset="1" stop-color="#16141a"/>
    </linearGradient>
    <radialGradient id="warm" cx="0" cy="0" r="1" gradientUnits="userSpaceOnUse" gradientTransform="translate(44 36) rotate(55) scale(50 44)">
      <stop stop-color="#ffe8c8" stop-opacity="0.22"/>
      <stop offset="1" stop-color="#ffe8c8" stop-opacity="0"/>
    </radialGradient>
    <radialGradient id="cheek" cx="0" cy="0" r="1" gradientUnits="userSpaceOnUse" gradientTransform="translate(72 58) scale(18)">
      <stop stop-color="#c98a6a" stop-opacity="0.12"/>
      <stop offset="1" stop-opacity="0"/>
    </radialGradient>
  </defs>
  <rect width="120" height="120" rx="60" fill="url(#bg)"/>
  <ellipse cx="60" cy="112" rx="36" ry="14" fill="#08080a" opacity="0.55"/>
  <path d="M24 98c8-20 24-32 36-32s28 12 36 32" fill="url(#shirt)"/>
  <path d="M35 54c0-17 11-27 25-27s25 10 25 27c0 15-3 34-25 34S35 69 35 54z" fill="url(#skin)"/>
  <ellipse cx="60" cy="40" rx="30" ry="22" fill="url(#warm)"/>
  <ellipse cx="72" cy="58" rx="14" ry="10" fill="url(#cheek)"/>
  <path d="M33 50c1-13 11-21 27-21s26 8 27 21c-7-5-15-8-27-8s-20 3-27 8z" fill="url(#hair)"/>
  <path d="M38 44c6-4 14-6 22-6s16 2 22 6" stroke="#4a4038" stroke-width="0.8" stroke-linecap="round" opacity="0.35"/>
  <path d="M48 52c1.5 1 3.5 1.5 6 1.5" stroke="#5c4538" stroke-width="1" stroke-linecap="round" opacity="0.25"/>
  <path d="M66 52c2.5 1 4.5 1.5 6 1.5" stroke="#5c4538" stroke-width="1" stroke-linecap="round" opacity="0.25"/>
  <path d="M52 62c2.5 3 7 4.5 12 4.5s9.5-1.5 12-4.5" stroke="#7a5e48" stroke-width="1" stroke-linecap="round" opacity="0.28"/>
  <path d="M58 66c2 1 4 1.5 6 1.5" stroke="#6b5342" stroke-width="0.6" opacity="0.2"/>
</svg>
